<?xml version="1.0" encoding="UTF-8"?>
<!DOCTYPE svg PUBLIC "-//W3C//DTD SVG 1.1//EN" "http://www.w3.org/Graphics/SVG/1.1/DTD/svg11.dtd">
<svg xmlns="http://www.w3.org/2000/svg" version="1.1" width="30px" height="30px" style="shape-rendering:geometricPrecision; text-rendering:geometricPrecision; image-rendering:optimizeQuality; fill-rule:evenodd; clip-rule:evenodd" xmlns:xlink="http://www.w3.org/1999/xlink">
<g><path style="opacity:0.781" fill="#644e45" d="M 28.5,13.5 C 25.5046,10.8258 22.8379,11.1591 20.5,14.5C 20.5,14.1667 20.5,13.8333 20.5,13.5C 18.5774,8.18281 15.2441,7.18281 10.5,10.5C 9.38809,11.2652 8.72142,12.2652 8.5,13.5C 5.34922,10.6267 2.68255,10.96 0.5,14.5C 0.609085,8.54764 3.10908,7.2143 8,10.5C 9.63631,4.57618 13.1363,3.07618 18.5,6C 19.4601,7.41941 20.2935,8.91941 21,10.5C 22.938,8.02159 25.1047,7.85492 27.5,10C 28.3366,11.0113 28.67,12.1779 28.5,13.5 Z"/></g>
<g><path style="opacity:0.865" fill="#f2aa42" d="M 20.5,13.5 C 19.5116,14.795 18.5116,16.1283 17.5,17.5C 15.5,20.1667 13.5,20.1667 11.5,17.5C 10.4884,16.1283 9.48837,14.795 8.5,13.5C 8.72142,12.2652 9.38809,11.2652 10.5,10.5C 15.2441,7.18281 18.5774,8.18281 20.5,13.5 Z"/></g>
<g><path style="opacity:0.97" fill="#e6a44e" d="M 8.5,13.5 C 8.44312,14.609 8.10978,15.609 7.5,16.5C 6.51776,17.1408 5.51776,17.8075 4.5,18.5C 3.48224,17.8075 2.48224,17.1408 1.5,16.5C 1.16667,15.8333 0.833333,15.1667 0.5,14.5C 2.68255,10.96 5.34922,10.6267 8.5,13.5 Z"/></g>
<g><path style="opacity:0.97" fill="#e8a54e" d="M 28.5,13.5 C 28.4431,14.609 28.1098,15.609 27.5,16.5C 26.5178,17.1408 25.5178,17.8075 24.5,18.5C 23.4822,17.8075 22.4822,17.1408 21.5,16.5C 21.1667,15.8333 20.8333,15.1667 20.5,14.5C 22.8379,11.1591 25.5046,10.8258 28.5,13.5 Z"/></g>
<g><path style="opacity:0.842" fill="#2196f2" d="M 1.5,16.5 C 2.48224,17.1408 3.48224,17.8075 4.5,18.5C 5.51776,17.8075 6.51776,17.1408 7.5,16.5C 7.83333,17.1667 8.16667,17.8333 8.5,18.5C 8.26714,20.0618 7.60048,21.3951 6.5,22.5C 4.16667,22.5 1.83333,22.5 -0.5,22.5C -0.5,21.1667 -0.5,19.8333 -0.5,18.5C 0.5,18.1667 1.16667,17.5 1.5,16.5 Z"/></g>
<g><path style="opacity:0.76" fill="#4bb3e7" d="M 11.5,17.5 C 13.5,20.1667 15.5,20.1667 17.5,17.5C 18.609,17.5569 19.609,17.8902 20.5,18.5C 20.7329,20.0618 21.3995,21.3951 22.5,22.5C 20.2568,23.8117 17.5902,24.4783 14.5,24.5C 11.4098,24.4783 8.74317,23.8117 6.5,22.5C 7.60048,21.3951 8.26714,20.0618 8.5,18.5C 9.39105,17.8902 10.391,17.5569 11.5,17.5 Z"/></g>
<g><path style="opacity:0.842" fill="#2196f2" d="M 21.5,16.5 C 22.4822,17.1408 23.4822,17.8075 24.5,18.5C 25.5178,17.8075 26.5178,17.1408 27.5,16.5C 27.8333,17.5 28.5,18.1667 29.5,18.5C 29.5,19.8333 29.5,21.1667 29.5,22.5C 27.1667,22.5 24.8333,22.5 22.5,22.5C 21.3995,21.3951 20.7329,20.0618 20.5,18.5C 20.8333,17.8333 21.1667,17.1667 21.5,16.5 Z"/></g>
</svg>
